<?xml version="1.0" encoding="utf-8"?>
<!-- Generator: Adobe Illustrator 18.1.1, SVG Export Plug-In . SVG Version: 6.00 Build 0)  -->
<svg version="1.1" id="Livello_1" xmlns="http://www.w3.org/2000/svg" xmlns:xlink="http://www.w3.org/1999/xlink" x="0px" y="0px"
	 viewBox="0 0 558.4 558.4" enable-background="new 0 0 558.4 558.4" xml:space="preserve">
<g>
	<path fill="#673AB7" d="M422,359.7H128.5V66.1H422V359.7z M157.9,330.2h234.6V95.6H157.9V330.2z"/>
</g>
<g>
	<path fill="#673AB7" d="M514.7,493.5H43.7V332.3h470.9V493.5z M73.2,464h412V361.8h-412V464z"/>
</g>
<g>
	<rect x="99.4" y="388.8" fill="#673AB7" width="117.8" height="29.5"/>
</g>
<circle fill="#673AB7" cx="380.5" cy="404.4" r="16.4"/>
<circle fill="#673AB7" cx="439.5" cy="404.4" r="16.4"/>
<g>
	<path fill="#673AB7" d="M277.1,300.4l-72.6-17l-14.9-70.5l14.9-70.4l72.6-17.6l68.6,17.6l17.5,71l-17.6,69.7L277.1,300.4z
		 M229.5,259l47.4,11.1l44.5-11.1l11.5-45.5l-11.5-46.8l-44.4-11.4l-47.4,11.5l-9.7,46.1L229.5,259z"/>
</g>
</svg>
